<?xml version="1.0" encoding="UTF-8" standalone="no"?>
<svg
   xmlns:dc="http://purl.org/dc/elements/1.1/"
   xmlns:cc="http://creativecommons.org/ns#"
   xmlns:rdf="http://www.w3.org/1999/02/22-rdf-syntax-ns#"
   xmlns:svg="http://www.w3.org/2000/svg"
   xmlns="http://www.w3.org/2000/svg"
   viewBox="0 0 362.13028 418.14218"
   height="418.14218"
   width="362.13028"
   xml:space="preserve"
   id="svg2"
   version="1.1"><metadata
     id="metadata8"><rdf:RDF><cc:Work
         rdf:about=""><dc:format>image/svg+xml</dc:format><dc:type
           rdf:resource="http://purl.org/dc/dcmitype/StillImage" /></cc:Work></rdf:RDF></metadata><defs
     id="defs6"><clipPath
       id="clipPath20"
       clipPathUnits="userSpaceOnUse"><path
         id="path18"
         d="M 0,77.606628 H 272 V 236.60663 H 0 Z" /></clipPath><mask
       id="mask22"
       height="1"
       width="1"
       y="0"
       x="0"
       maskUnits="userSpaceOnUse"><g
         id="g28"><g
           id="g26"
           clip-path="url(#clipPath20)"><path
             id="path24"
             style="fill:#000000;fill-opacity:0.43600003;fill-rule:nonzero;stroke:none"
             d="M 0,77.606628 H 272 V 236.60663 H 0 Z" /></g></g></mask><clipPath
       id="clipPath36"
       clipPathUnits="userSpaceOnUse"><path
         id="path34"
         d="M 0,77.606628 H 272 V 236.60663 H 0 Z" /></clipPath><clipPath
       id="clipPath40"
       clipPathUnits="userSpaceOnUse"><path
         id="path38"
         d="M 0,78 H 272 V 237 H 0 Z" /></clipPath></defs><g
     transform="matrix(1.3333333,0,0,-1.3333333,0,418.14217)"
     id="g10"><g
       id="g12"><g
         id="g14"><g
           id="g16" /><g
           mask="url(#mask22)"
           id="g30"><g
             id="g32" /><g
             id="g54"><g
               id="g52"
               clip-path="url(#clipPath36)"><g
                 id="g50"
                 transform="translate(0,-0.393372)"><g
                   id="g48"><g
                     id="g46"
                     clip-path="url(#clipPath40)"><g
                       id="g44"><path
                         id="path42"
                         style="fill:#ffcc00;fill-opacity:1;fill-rule:nonzero;stroke:none"
                         d="M 271.598,236.461 V 177.195 L 0,78.422 v 59.262 z" /></g></g></g></g></g></g></g></g><path
         id="path56"
         style="fill:#c04384;fill-opacity:1;fill-rule:nonzero;stroke:none"
         d="m 0,78.029 v 158.039 l 137.297,77.539 134.301,-77.539 V 78.029 L 137.297,0.001 Z" /><g
         transform="matrix(1,0,0,-1,0,313.60663)"
         id="g58"><path
           id="path60"
           style="fill:#ffffff;fill-opacity:1;fill-rule:nonzero;stroke:#ffffff;stroke-width:4;stroke-linecap:butt;stroke-linejoin:miter;stroke-miterlimit:4;stroke-dasharray:none;stroke-opacity:1"
           d="m 7.336,81.824 v 89.367 L 264.262,137.867 V 81.797 C 221.922,57.352 179.582,32.906 137.238,8.461 Z" /></g><text
         id="text66"
         style="font-variant:normal;font-weight:normal;font-size:55.00832367px;font-family:FlandersArtSans-Regular;-inkscape-font-specification:FlandersArtSans-Regular;writing-mode:lr-tb;fill:#ffffff;fill-opacity:1;fill-rule:nonzero;stroke:none"
         transform="matrix(0.99969746,0,0,-1,74.228584,51.982456)"><tspan
           id="tspan62"
           y="0"
           x="0 28.989386 55.11834 92.799042">CLUB</tspan><tspan
           id="tspan64"
           y="-46.122936"
           x="-28.551685 0.43770123 37.568317 72.388588 85.095512 118.98064">CODING</tspan></text>
<path
         id="path68"
         style="fill:#c04384;fill-opacity:1;fill-rule:nonzero;stroke:none"
         d="m 27.73,219.806 h 1.594 c 1.727,0 3.129,0.219 4.114,0.769 0.984,0.551 1.523,1.45 1.523,2.805 0,1.441 -0.516,2.34 -1.453,2.879 -0.934,0.527 -2.266,0.707 -3.883,0.707 H 27.73 Z m -1.859,8.898 h 3.875 c 2.637,0 4.387,-0.406 5.492,-1.258 1.102,-0.863 1.547,-2.148 1.547,-3.91 0,-1.211 -0.242,-2.172 -0.707,-2.925 -0.469,-0.766 -1.14,-1.305 -1.969,-1.692 0.192,-0.492 0.528,-1.113 0.961,-1.75 0.418,-0.637 0.922,-1.281 1.461,-1.808 0.528,-0.543 1.078,-0.985 1.606,-1.188 l -1.016,-1.512 c -0.625,0.133 -1.273,0.61 -1.883,1.27 -0.625,0.66 -1.215,1.465 -1.715,2.265 -0.503,0.805 -0.925,1.575 -1.199,2.149 -1.019,-0.203 -2.183,-0.277 -3.441,-0.277 H 27.73 V 212.9 h -1.859 v 15.804" /><path
         id="path70"
         style="fill:#c04384;fill-opacity:1;fill-rule:nonzero;stroke:none"
         d="m 50.176,228.704 v -1.726 h -7.66 v -5.313 h 7.66 v -1.726 h -7.66 v -5.313 h 7.66 V 212.9 h -9.52 v 15.804 h 9.52" /><path
         id="path72"
         style="fill:#c04384;fill-opacity:1;fill-rule:nonzero;stroke:none"
         d="m 51.891,215.048 c 0.839,-0.383 2.386,-0.66 3.48,-0.66 1.82,0 3.621,0.66 3.621,2.601 0,1.055 -0.492,1.68 -1.39,2.243 -0.758,0.48 -3.766,1.894 -4.414,2.433 -0.766,0.614 -1.247,1.598 -1.247,3.024 0,2.972 2.121,4.257 4.891,4.257 0.973,0 1.918,-0.167 2.781,-0.421 v -1.582 l -0.035,-0.024 c -0.719,0.145 -1.738,0.324 -2.746,0.324 -1.75,0 -3.203,-0.566 -3.203,-2.41 0,-0.781 0.254,-1.211 0.687,-1.597 0.778,-0.696 3.235,-1.688 4.422,-2.54 1.297,-0.925 1.981,-1.535 1.981,-3.3 0,-3.141 -2.629,-4.735 -5.637,-4.735 -1.152,0 -2.266,0.227 -3.227,0.696 v 1.679 l 0.036,0.012" /><path
         id="path74"
         style="fill:#c04384;fill-opacity:1;fill-rule:nonzero;stroke:none"
         d="m 73.234,228.704 v -1.726 h -7.66 v -5.313 h 7.66 v -1.726 h -7.66 v -5.313 h 7.66 V 212.9 h -9.519 v 15.804 h 9.519" /><path
         id="path76"
         style="fill:#c04384;fill-opacity:1;fill-rule:nonzero;stroke:none"
         d="m 83.715,218.31 -2.899,8.406 -2.902,-8.406 z m -6.391,-1.727 -1.269,-3.683 h -1.918 l 5.429,15.804 h 2.485 L 87.492,212.9 h -1.918 l -1.269,3.683 h -6.981" /><path
         id="path78"
         style="fill:#c04384;fill-opacity:1;fill-rule:nonzero;stroke:none"
         d="m 91.57,219.806 h 1.594 c 1.727,0 3.129,0.219 4.113,0.769 0.985,0.551 1.524,1.45 1.524,2.805 0,1.441 -0.516,2.34 -1.449,2.879 -0.938,0.527 -2.27,0.707 -3.887,0.707 H 91.57 Z m -1.859,8.898 h 3.875 c 2.637,0 4.387,-0.406 5.492,-1.258 1.102,-0.863 1.547,-2.148 1.547,-3.91 0,-1.211 -0.242,-2.172 -0.711,-2.925 -0.465,-0.766 -1.137,-1.305 -1.965,-1.692 0.192,-0.492 0.528,-1.113 0.961,-1.75 0.418,-0.637 0.922,-1.281 1.461,-1.808 0.527,-0.543 1.078,-0.985 1.606,-1.188 l -1.016,-1.512 c -0.625,0.133 -1.273,0.61 -1.883,1.27 -0.625,0.66 -1.211,1.465 -1.715,2.265 -0.504,0.805 -0.925,1.575 -1.199,2.149 -1.019,-0.203 -2.184,-0.277 -3.441,-0.277 H 91.57 V 212.9 h -1.859 v 15.804" /><path
         id="path80"
         style="fill:#c04384;fill-opacity:1;fill-rule:nonzero;stroke:none"
         d="m 115.059,214.857 v -1.703 c -0.539,-0.157 -1.172,-0.278 -1.797,-0.36 -0.637,-0.098 -1.282,-0.133 -1.848,-0.133 -2.637,0 -4.617,0.864 -5.91,2.352 -1.309,1.484 -1.965,3.582 -1.965,6.043 0.047,2.219 0.695,4.207 1.988,5.621 1.297,1.418 3.25,2.269 5.887,2.269 0.566,0 1.211,-0.05 1.848,-0.132 0.625,-0.086 1.258,-0.203 1.797,-0.36 v -1.703 l -0.082,-0.047 c -0.563,0.18 -1.188,0.297 -1.797,0.383 -0.614,0.082 -1.188,0.117 -1.668,0.117 -2.051,0 -3.586,-0.656 -4.594,-1.773 -1.02,-1.113 -1.535,-2.735 -1.535,-4.617 0,-1.871 0.504,-3.465 1.523,-4.602 1.02,-1.141 2.543,-1.812 4.606,-1.812 0.48,0 1.054,0.035 1.668,0.121 0.609,0.082 1.234,0.203 1.797,0.383 l 0.082,-0.047" /><path
         id="path82"
         style="fill:#c04384;fill-opacity:1;fill-rule:nonzero;stroke:none"
         d="m 119.316,219.88 v -6.98 h -1.859 v 15.804 h 1.859 v -6.976 h 7.711 v 6.976 h 1.86 V 212.9 h -1.86 v 6.98 h -7.711" /><path
         id="path84"
         style="fill:#c04384;fill-opacity:1;fill-rule:nonzero;stroke:none"
         d="m 139.918,228.704 h 1.848 v -15.805 h -1.848 z" /><path
         id="path86"
         style="fill:#c04384;fill-opacity:1;fill-rule:nonzero;stroke:none"
         d="m 147.461,212.9 h -1.859 v 15.804 h 1.929 l 7.641,-12.218 v 12.218 h 1.859 V 212.9 h -1.859 l -7.711,12.328 V 212.9" /><path
         id="path88"
         style="fill:#c04384;fill-opacity:1;fill-rule:nonzero;stroke:none"
         d="m 159.941,215.048 c 0.84,-0.383 2.387,-0.66 3.481,-0.66 1.82,0 3.621,0.66 3.621,2.601 0,1.055 -0.492,1.68 -1.395,2.243 -0.753,0.48 -3.761,1.894 -4.41,2.433 -0.769,0.614 -1.246,1.598 -1.246,3.024 0,2.972 2.121,4.257 4.891,4.257 0.972,0 1.918,-0.167 2.781,-0.421 v -1.582 l -0.035,-0.024 c -0.719,0.145 -1.738,0.324 -2.746,0.324 -1.75,0 -3.199,-0.566 -3.199,-2.41 0,-0.781 0.25,-1.211 0.679,-1.597 0.782,-0.696 3.239,-1.688 4.426,-2.54 1.297,-0.925 1.981,-1.535 1.981,-3.3 0,-3.141 -2.625,-4.735 -5.637,-4.735 -1.153,0 -2.266,0.227 -3.227,0.696 v 1.679 l 0.035,0.012" /><path
         id="path90"
         style="fill:#c04384;fill-opacity:1;fill-rule:nonzero;stroke:none"
         d="m 180.098,228.704 v -1.726 h -4.891 V 212.9 h -1.848 v 14.078 h -4.89 v 1.726 h 11.629" /><path
         id="path92"
         style="fill:#c04384;fill-opacity:1;fill-rule:nonzero;stroke:none"
         d="m 182.559,228.704 h 1.844 v -15.805 h -1.844 z" /><path
         id="path94"
         style="fill:#c04384;fill-opacity:1;fill-rule:nonzero;stroke:none"
         d="m 198.492,228.704 v -1.726 h -4.89 V 212.9 h -1.848 v 14.078 h -4.891 v 1.726 h 11.629" /><path
         id="path96"
         style="fill:#c04384;fill-opacity:1;fill-rule:nonzero;stroke:none"
         d="m 212.102,228.704 v -9.929 c 0,-1.786 -0.36,-3.079 -0.934,-3.981 -0.574,-0.91 -1.367,-1.449 -2.242,-1.75 -0.875,-0.301 -1.836,-0.383 -2.735,-0.383 -0.898,0 -1.836,0.082 -2.699,0.383 -0.875,0.301 -1.652,0.828 -2.23,1.738 -0.574,0.914 -0.922,2.184 -0.922,3.993 v 9.929 h 1.848 v -9.328 c 0,-1.57 0.226,-2.664 0.609,-3.394 0.371,-0.731 0.914,-1.137 1.5,-1.368 0.586,-0.226 1.246,-0.25 1.883,-0.25 0.707,0 1.39,0.036 2,0.274 0.613,0.23 1.117,0.637 1.488,1.379 0.371,0.746 0.59,1.812 0.59,3.359 v 9.328 h 1.844" /><path
         id="path98"
         style="fill:#c04384;fill-opacity:1;fill-rule:nonzero;stroke:none"
         d="m 225.629,228.704 v -1.726 h -4.891 V 212.9 h -1.847 v 14.078 h -4.895 v 1.726 h 11.633" /><path
         id="path100"
         style="fill:#c04384;fill-opacity:1;fill-rule:nonzero;stroke:none"
         d="m 236.648,228.704 v -1.726 h -7.66 v -5.313 h 7.66 v -1.726 h -7.66 v -5.313 h 7.66 V 212.9 h -9.519 v 15.804 h 9.519" /><path
         id="path102"
         style="fill:#c04384;fill-opacity:1;fill-rule:nonzero;stroke:none"
         d="m 28.316,190.798 h -2.804 v 15.805 h 2.804 l 6.575,-10.516 v 10.516 h 2.804 v -15.805 h -2.804 l -6.575,10.504 v -10.504" /><path
         id="path104"
         style="fill:#c04384;fill-opacity:1;fill-rule:nonzero;stroke:none"
         d="m 48.918,196.771 -2.133,6.211 -2.148,-6.211 z m -3.777,10.07 h 3.285 l 5.527,-16.043 H 50.98 l -1.125,3.273 h -6.14 l -1.129,-3.273 h -2.973 l 5.528,16.043" /><path
         id="path106"
         style="fill:#c04384;fill-opacity:1;fill-rule:nonzero;stroke:none"
         d="m 65.395,206.603 v -2.699 h -4.797 v -13.106 h -2.805 v 13.106 h -4.797 v 2.699 h 12.399" /><path
         id="path108"
         style="fill:#c04384;fill-opacity:1;fill-rule:nonzero;stroke:none"
         d="m 69.879,206.603 v -8.899 c 0,-1.832 0.371,-2.949 1.008,-3.597 0.633,-0.645 1.582,-0.848 2.695,-0.848 1.141,0 2.063,0.203 2.699,0.848 0.637,0.648 1.008,1.765 1.008,3.597 v 8.899 h 2.805 v -9.699 c 0,-1.86 -0.43,-3.18 -1.102,-4.125 -0.683,-0.95 -1.582,-1.489 -2.531,-1.813 -0.957,-0.324 -1.93,-0.406 -2.746,-0.406 h -0.262 c -0.816,0 -1.789,0.082 -2.734,0.406 -0.961,0.324 -1.86,0.863 -2.531,1.813 -0.684,0.945 -1.114,2.265 -1.114,4.125 v 9.699 h 2.805" /><path
         id="path110"
         style="fill:#c04384;fill-opacity:1;fill-rule:nonzero;stroke:none"
         d="m 85.66,198.22 h 1.774 c 1.628,0 2.683,0.277 3.332,0.758 0.648,0.48 0.875,1.164 0.875,2.011 0,0.868 -0.227,1.586 -0.875,2.102 -0.649,0.516 -1.704,0.813 -3.332,0.813 H 85.66 Z m -2.808,8.383 h 4.535 c 1.043,0 2.168,-0.133 3.222,-0.469 1.059,-0.336 2.004,-0.887 2.711,-1.738 0.707,-0.852 1.141,-1.965 1.141,-3.489 0,-1.101 -0.277,-2.003 -0.758,-2.734 -0.476,-0.73 -1.148,-1.305 -1.953,-1.727 0.324,-0.718 0.961,-1.558 1.691,-2.277 0.731,-0.73 1.571,-1.355 2.289,-1.609 v -0.129 l -1.246,-1.871 c -0.781,0 -1.582,0.347 -2.328,0.886 -0.742,0.528 -1.426,1.247 -1.976,2.004 -0.551,0.754 -0.973,1.536 -1.2,2.168 -0.515,-0.082 -1.054,-0.093 -1.593,-0.093 H 85.66 v -4.727 h -2.808 v 15.805" /><path
         id="path112"
         style="fill:#c04384;fill-opacity:1;fill-rule:nonzero;stroke:none"
         d="m 106.918,206.603 v -2.699 h -6.582 v -3.895 h 6.402 v -2.699 h -6.402 v -3.813 h 6.582 v -2.699 h -9.387 v 15.805 h 9.387" /><path
         id="path114"
         style="fill:#c04384;fill-opacity:1;fill-rule:nonzero;stroke:none"
         d="m 124.137,196.771 -2.133,6.211 -2.149,-6.211 z m -3.778,10.07 h 3.286 l 5.527,-16.043 h -2.973 l -1.125,3.273 h -6.14 l -1.125,-3.273 h -2.977 l 5.527,16.043" /><path
         id="path116"
         style="fill:#c04384;fill-opacity:1;fill-rule:nonzero;stroke:none"
         d="m 133.898,190.798 h -2.804 v 15.805 h 2.804 l 6.571,-10.516 v 10.516 h 2.808 v -15.805 h -2.808 l -6.571,10.504 v -10.504" /><path
         id="path118"
         style="fill:#c04384;fill-opacity:1;fill-rule:nonzero;stroke:none"
         d="m 149.199,193.486 h 2.098 c 2.219,0 3.668,0.742 4.582,1.761 0.898,1.02 1.234,2.328 1.234,3.465 0,1.309 -0.504,2.613 -1.511,3.586 -1.008,0.961 -2.516,1.606 -4.52,1.606 h -1.883 z m -2.804,13.117 h 5.238 c 2.578,0 4.676,-0.887 6.14,-2.313 1.461,-1.429 2.266,-3.406 2.266,-5.566 0,-1.965 -0.66,-3.945 -2.027,-5.43 -1.367,-1.488 -3.43,-2.496 -6.246,-2.496 h -5.371 v 15.805" /><path
         id="path120"
         style="fill:#c04384;fill-opacity:1;fill-rule:nonzero;stroke:none"
         d="m 178.66,206.603 v -2.699 h -6.941 v -3.895 h 6.703 v -2.699 h -6.703 v -6.512 h -2.809 v 15.805 h 9.75" /><path
         id="path122"
         style="fill:#c04384;fill-opacity:1;fill-rule:nonzero;stroke:none"
         d="m 182.773,198.833 c 0,-1.582 0.418,-2.984 1.235,-3.98 0.804,-0.996 2.004,-1.594 3.586,-1.594 1.535,0 2.699,0.551 3.476,1.508 0.782,0.949 1.188,2.281 1.188,3.828 0,1.809 -0.61,3.211 -1.512,4.148 -0.91,0.934 -2.121,1.414 -3.32,1.414 -1.164,0 -2.34,-0.457 -3.203,-1.355 -0.875,-0.898 -1.45,-2.231 -1.45,-3.969 z m -2.804,-0.121 c 0,2.305 0.777,4.328 2.121,5.793 1.344,1.461 3.25,2.336 5.504,2.336 2.254,0 4.125,-0.875 5.433,-2.336 1.293,-1.465 2.035,-3.488 2.035,-5.793 0,-2.301 -0.765,-4.328 -2.109,-5.789 -1.344,-1.465 -3.238,-2.363 -5.492,-2.363 -2.254,0 -4.137,0.898 -5.43,2.363 -1.308,1.461 -2.062,3.488 -2.062,5.789" /><path
         id="path124"
         style="fill:#c04384;fill-opacity:1;fill-rule:nonzero;stroke:none"
         d="m 200.148,198.22 h 1.774 c 1.633,0 2.687,0.277 3.336,0.758 0.644,0.48 0.875,1.164 0.875,2.011 0,0.868 -0.231,1.586 -0.875,2.102 -0.649,0.516 -1.703,0.813 -3.336,0.813 h -1.774 z m -2.804,8.383 h 4.531 c 1.043,0 2.168,-0.133 3.227,-0.469 1.054,-0.336 2,-0.887 2.71,-1.738 0.708,-0.852 1.137,-1.965 1.137,-3.489 0,-1.101 -0.273,-2.003 -0.754,-2.734 -0.48,-0.73 -1.152,-1.305 -1.957,-1.727 0.324,-0.718 0.961,-1.558 1.692,-2.277 0.73,-0.73 1.57,-1.355 2.293,-1.609 v -0.129 l -1.25,-1.871 c -0.778,0 -1.582,0.347 -2.325,0.886 -0.746,0.528 -1.429,1.247 -1.98,2.004 -0.551,0.754 -0.969,1.536 -1.199,2.168 -0.516,-0.082 -1.055,-0.093 -1.594,-0.093 h -1.727 v -4.727 h -2.804 v 15.805" /><path
         id="path126"
         style="fill:#c04384;fill-opacity:1;fill-rule:nonzero;stroke:none"
         d="m 221.406,206.603 v -2.699 h -6.582 v -3.895 h 6.403 v -2.699 h -6.403 v -3.813 h 6.582 v -2.699 h -9.386 v 15.805 h 9.386" /><path
         id="path128"
         style="fill:#c04384;fill-opacity:1;fill-rule:nonzero;stroke:none"
         d="m 231.625,203.943 c -0.734,0.156 -1.824,0.261 -2.879,0.261 -0.922,0 -1.691,-0.082 -2.207,-0.312 -0.516,-0.227 -0.801,-0.574 -0.801,-1.137 0,-0.578 0.344,-1.055 0.875,-1.465 0.528,-0.406 1.235,-0.765 1.93,-1.054 0.348,-0.157 0.684,-0.29 1.008,-0.418 0.66,-0.254 1.293,-0.516 2.027,-1.032 0.731,-0.527 1.293,-1.211 1.629,-2.05 0.156,-0.422 0.242,-0.887 0.242,-1.391 0,-1.621 -0.914,-2.809 -2.207,-3.598 -1.297,-0.793 -2.988,-1.187 -4.535,-1.187 -1.234,0 -2.469,0.226 -3.523,0.695 v 2.637 l 0.035,0.012 c 0.445,-0.18 1.043,-0.348 1.691,-0.477 0.649,-0.145 1.356,-0.231 2.039,-0.231 1.09,0 1.989,0.231 2.625,0.59 0.625,0.36 0.985,0.864 0.985,1.45 0,0.574 -0.348,1.066 -0.864,1.476 -0.531,0.406 -1.211,0.742 -1.91,1.031 -0.344,0.141 -0.691,0.274 -1.031,0.407 -0.672,0.25 -1.281,0.515 -2,1.019 -0.719,0.504 -1.309,1.164 -1.645,2.027 -0.179,0.43 -0.261,0.911 -0.261,1.438 0,1.523 0.781,2.578 1.906,3.25 1.125,0.672 2.613,0.957 4.066,0.957 1.016,0 1.977,-0.141 2.84,-0.371 l -0.035,-2.527" /><path
         id="path130"
         style="fill:#c04384;fill-opacity:1;fill-rule:nonzero;stroke:none"
         d="m 246.086,206.603 v -2.699 h -4.797 v -13.106 h -2.805 v 13.106 h -4.796 v 2.699 h 12.398" /><path
         id="path132"
         style="fill:#c04384;fill-opacity:1;fill-rule:nonzero;stroke:none"
         d="m 27.73,219.806 h 1.594 c 1.727,0 3.129,0.219 4.114,0.769 0.984,0.551 1.523,1.45 1.523,2.805 0,1.441 -0.516,2.34 -1.453,2.879 -0.934,0.527 -2.266,0.707 -3.883,0.707 H 27.73 Z m -1.859,8.898 h 3.875 c 2.637,0 4.387,-0.406 5.492,-1.258 1.102,-0.863 1.547,-2.148 1.547,-3.91 0,-1.211 -0.242,-2.172 -0.707,-2.925 -0.469,-0.766 -1.14,-1.305 -1.969,-1.692 0.192,-0.492 0.528,-1.113 0.961,-1.75 0.418,-0.637 0.922,-1.281 1.461,-1.808 0.528,-0.543 1.078,-0.985 1.606,-1.188 l -1.016,-1.512 c -0.625,0.133 -1.273,0.61 -1.883,1.27 -0.625,0.66 -1.215,1.465 -1.715,2.265 -0.503,0.805 -0.925,1.575 -1.199,2.149 -1.019,-0.203 -2.183,-0.277 -3.441,-0.277 H 27.73 V 212.9 h -1.859 v 15.804" /><path
         id="path134"
         style="fill:#c04384;fill-opacity:1;fill-rule:nonzero;stroke:none"
         d="m 50.176,228.704 v -1.726 h -7.66 v -5.313 h 7.66 v -1.726 h -7.66 v -5.313 h 7.66 V 212.9 h -9.52 v 15.804 h 9.52" /><path
         id="path136"
         style="fill:#c04384;fill-opacity:1;fill-rule:nonzero;stroke:none"
         d="m 51.891,215.048 c 0.839,-0.383 2.386,-0.66 3.48,-0.66 1.82,0 3.621,0.66 3.621,2.601 0,1.055 -0.492,1.68 -1.39,2.243 -0.758,0.48 -3.766,1.894 -4.414,2.433 -0.766,0.614 -1.247,1.598 -1.247,3.024 0,2.972 2.121,4.257 4.891,4.257 0.973,0 1.918,-0.167 2.781,-0.421 v -1.582 l -0.035,-0.024 c -0.719,0.145 -1.738,0.324 -2.746,0.324 -1.75,0 -3.203,-0.566 -3.203,-2.41 0,-0.781 0.254,-1.211 0.687,-1.597 0.778,-0.696 3.235,-1.688 4.422,-2.54 1.297,-0.925 1.981,-1.535 1.981,-3.3 0,-3.141 -2.629,-4.735 -5.637,-4.735 -1.152,0 -2.266,0.227 -3.227,0.696 v 1.679 l 0.036,0.012" /><path
         id="path138"
         style="fill:#c04384;fill-opacity:1;fill-rule:nonzero;stroke:none"
         d="m 73.234,228.704 v -1.726 h -7.66 v -5.313 h 7.66 v -1.726 h -7.66 v -5.313 h 7.66 V 212.9 h -9.519 v 15.804 h 9.519" /><path
         id="path140"
         style="fill:#c04384;fill-opacity:1;fill-rule:nonzero;stroke:none"
         d="m 83.715,218.31 -2.899,8.406 -2.902,-8.406 z m -6.391,-1.727 -1.269,-3.683 h -1.918 l 5.429,15.804 h 2.485 L 87.492,212.9 h -1.918 l -1.269,3.683 h -6.981" /><path
         id="path142"
         style="fill:#c04384;fill-opacity:1;fill-rule:nonzero;stroke:none"
         d="m 91.57,219.806 h 1.594 c 1.727,0 3.129,0.219 4.113,0.769 0.985,0.551 1.524,1.45 1.524,2.805 0,1.441 -0.516,2.34 -1.449,2.879 -0.938,0.527 -2.27,0.707 -3.887,0.707 H 91.57 Z m -1.859,8.898 h 3.875 c 2.637,0 4.387,-0.406 5.492,-1.258 1.102,-0.863 1.547,-2.148 1.547,-3.91 0,-1.211 -0.242,-2.172 -0.711,-2.925 -0.465,-0.766 -1.137,-1.305 -1.965,-1.692 0.192,-0.492 0.528,-1.113 0.961,-1.75 0.418,-0.637 0.922,-1.281 1.461,-1.808 0.527,-0.543 1.078,-0.985 1.606,-1.188 l -1.016,-1.512 c -0.625,0.133 -1.273,0.61 -1.883,1.27 -0.625,0.66 -1.211,1.465 -1.715,2.265 -0.504,0.805 -0.925,1.575 -1.199,2.149 -1.019,-0.203 -2.184,-0.277 -3.441,-0.277 H 91.57 V 212.9 h -1.859 v 15.804" /><path
         id="path144"
         style="fill:#c04384;fill-opacity:1;fill-rule:nonzero;stroke:none"
         d="m 115.059,214.857 v -1.703 c -0.539,-0.157 -1.172,-0.278 -1.797,-0.36 -0.637,-0.098 -1.282,-0.133 -1.848,-0.133 -2.637,0 -4.617,0.864 -5.91,2.352 -1.309,1.484 -1.965,3.582 -1.965,6.043 0.047,2.219 0.695,4.207 1.988,5.621 1.297,1.418 3.25,2.269 5.887,2.269 0.566,0 1.211,-0.05 1.848,-0.132 0.625,-0.086 1.258,-0.203 1.797,-0.36 v -1.703 l -0.082,-0.047 c -0.563,0.18 -1.188,0.297 -1.797,0.383 -0.614,0.082 -1.188,0.117 -1.668,0.117 -2.051,0 -3.586,-0.656 -4.594,-1.773 -1.02,-1.113 -1.535,-2.735 -1.535,-4.617 0,-1.871 0.504,-3.465 1.523,-4.602 1.02,-1.141 2.543,-1.812 4.606,-1.812 0.48,0 1.054,0.035 1.668,0.121 0.609,0.082 1.234,0.203 1.797,0.383 l 0.082,-0.047" /><path
         id="path146"
         style="fill:#c04384;fill-opacity:1;fill-rule:nonzero;stroke:none"
         d="m 119.316,219.88 v -6.98 h -1.859 v 15.804 h 1.859 v -6.976 h 7.711 v 6.976 h 1.86 V 212.9 h -1.86 v 6.98 h -7.711" /><path
         id="path148"
         style="fill:#c04384;fill-opacity:1;fill-rule:nonzero;stroke:none"
         d="m 139.918,228.704 h 1.848 v -15.805 h -1.848 z" /><path
         id="path150"
         style="fill:#c04384;fill-opacity:1;fill-rule:nonzero;stroke:none"
         d="m 147.461,212.9 h -1.859 v 15.804 h 1.929 l 7.641,-12.218 v 12.218 h 1.859 V 212.9 h -1.859 l -7.711,12.328 V 212.9" /><path
         id="path152"
         style="fill:#c04384;fill-opacity:1;fill-rule:nonzero;stroke:none"
         d="m 159.941,215.048 c 0.84,-0.383 2.387,-0.66 3.481,-0.66 1.82,0 3.621,0.66 3.621,2.601 0,1.055 -0.492,1.68 -1.395,2.243 -0.753,0.48 -3.761,1.894 -4.41,2.433 -0.769,0.614 -1.246,1.598 -1.246,3.024 0,2.972 2.121,4.257 4.891,4.257 0.972,0 1.918,-0.167 2.781,-0.421 v -1.582 l -0.035,-0.024 c -0.719,0.145 -1.738,0.324 -2.746,0.324 -1.75,0 -3.199,-0.566 -3.199,-2.41 0,-0.781 0.25,-1.211 0.679,-1.597 0.782,-0.696 3.239,-1.688 4.426,-2.54 1.297,-0.925 1.981,-1.535 1.981,-3.3 0,-3.141 -2.625,-4.735 -5.637,-4.735 -1.153,0 -2.266,0.227 -3.227,0.696 v 1.679 l 0.035,0.012" /><path
         id="path154"
         style="fill:#c04384;fill-opacity:1;fill-rule:nonzero;stroke:none"
         d="m 180.098,228.704 v -1.726 h -4.891 V 212.9 h -1.848 v 14.078 h -4.89 v 1.726 h 11.629" /><path
         id="path156"
         style="fill:#c04384;fill-opacity:1;fill-rule:nonzero;stroke:none"
         d="m 182.559,228.704 h 1.844 v -15.805 h -1.844 z" /><path
         id="path158"
         style="fill:#c04384;fill-opacity:1;fill-rule:nonzero;stroke:none"
         d="m 198.492,228.704 v -1.726 h -4.89 V 212.9 h -1.848 v 14.078 h -4.891 v 1.726 h 11.629" /><path
         id="path160"
         style="fill:#c04384;fill-opacity:1;fill-rule:nonzero;stroke:none"
         d="m 212.102,228.704 v -9.929 c 0,-1.786 -0.36,-3.079 -0.934,-3.981 -0.574,-0.91 -1.367,-1.449 -2.242,-1.75 -0.875,-0.301 -1.836,-0.383 -2.735,-0.383 -0.898,0 -1.836,0.082 -2.699,0.383 -0.875,0.301 -1.652,0.828 -2.23,1.738 -0.574,0.914 -0.922,2.184 -0.922,3.993 v 9.929 h 1.848 v -9.328 c 0,-1.57 0.226,-2.664 0.609,-3.394 0.371,-0.731 0.914,-1.137 1.5,-1.368 0.586,-0.226 1.246,-0.25 1.883,-0.25 0.707,0 1.39,0.036 2,0.274 0.613,0.23 1.117,0.637 1.488,1.379 0.371,0.746 0.59,1.812 0.59,3.359 v 9.328 h 1.844" /><path
         id="path162"
         style="fill:#c04384;fill-opacity:1;fill-rule:nonzero;stroke:none"
         d="m 225.629,228.704 v -1.726 h -4.891 V 212.9 h -1.847 v 14.078 h -4.895 v 1.726 h 11.633" /><path
         id="path164"
         style="fill:#c04384;fill-opacity:1;fill-rule:nonzero;stroke:none"
         d="m 236.648,228.704 v -1.726 h -7.66 v -5.313 h 7.66 v -1.726 h -7.66 v -5.313 h 7.66 V 212.9 h -9.519 v 15.804 h 9.519" /><g
         transform="matrix(1,0,0,-1,0,313.60663)"
         id="g166"><path
           id="path168"
           style="fill:none;stroke:#ffffff;stroke-width:4;stroke-linecap:butt;stroke-linejoin:miter;stroke-miterlimit:4;stroke-dasharray:none;stroke-opacity:1"
           d="m 7.336,81.824 v 149.492 c 43.301,24.61 86.602,49.219 129.906,73.829 42.34,-24.602 84.68,-49.2 127.024,-73.801 V 81.797 C 221.922,57.352 179.582,32.906 137.242,8.461 Z" /></g></g></g></svg>